# xmcd CD database file generated by OrangeCD 5.2
#
# Track frame offsets:
#	150
#	17180
#	45147
#	60695
#	73027
#	90200
#	106192
#	119245
#	135707
#	148387
#	164625
#	176080
#
# Disc length: 2616 seconds
#
# Revision: 0
# Processed by: cddbd v1.5.1PL0 Copyright (c) Steve Scherf et al.
# Submitted via: OrangeCD 5.2
#
DISCID=ad0a360c
DTITLE=Belinda Gail - Cowboy Code The Life...The Love...The Land
DYEAR=2000
DGENRE=Country
TTITLE0=Cowboy Code
TTITLE1=Western Trilogy: Tumbling Tumbleweeds - Cool Water - Blue Shadows On Th
TTITLE1=e Trail
TTITLE2=Poem: She Belongs To The Land
TTITLE3=Cowboys Are A Girl's Best Friend
TTITLE4=Amilia Crane
TTITLE5=Fair Blows The Wind
TTITLE6=Ghost Riders
TTITLE7=Wild Sierras
TTITLE8=Starlighten Time
TTITLE9=Girl With A Broken Heart
TTITLE10=Cowboy Polka
TTITLE11=Followin On That Star
EXTD=
EXTT0=
EXTT1=
EXTT2=
EXTT3=
EXTT4=
EXTT5=
EXTT6=
EXTT7=
EXTT8=
EXTT9=
EXTT10=
EXTT11=
PLAYORDER=
